<svg t="1657181244397" class="icon" viewBox="0 0 1024 1024" version="1.1" xmlns="http://www.w3.org/2000/svg" p-id="21280" width="500" height="500"><path d="M950.857143 0a73.142857 73.142857 0 0 1 73.142857 73.142857v877.714286a73.142857 73.142857 0 0 1-73.142857 73.142857H73.142857a73.142857 73.142857 0 0 1-73.142857-73.142857V73.142857a73.142857 73.142857 0 0 1 73.142857-73.142857h877.714286zM512 146.285714a219.428571 219.428571 0 0 0-135.753143 391.753143A365.860571 365.860571 0 0 0 146.285714 877.714286h146.285715a219.428571 219.428571 0 0 1 438.857142 0h146.285715a365.714286 365.714286 0 0 0-229.888-339.602286A219.428571 219.428571 0 0 0 512 146.285714z m0 146.285715a73.142857 73.142857 0 1 1 0 146.285714 73.142857 73.142857 0 0 1 0-146.285714z" p-id="21281"></path></svg>